<svg width="108" height="30" viewBox="0 0 108 30" fill="none" xmlns="http://www.w3.org/2000/svg">
<circle cx="13" cy="15" r="12" stroke="white" stroke-width="2"/>
<circle cx="13" cy="15" r="11" fill="#41506E"/>
<path d="M45.5244 7.1543C45.557 7.2194 45.5732 7.44727 45.5732 7.83789C45.5895 8.22852 45.5895 8.70052 45.5732 9.25391C45.5732 9.80729 45.557 10.4014 45.5244 11.0361C45.4919 11.6546 45.4512 12.2406 45.4023 12.7939C45.3698 13.1032 45.3128 13.5671 45.2314 14.1855C45.1663 14.804 45.085 15.4876 44.9873 16.2363C44.8896 16.985 44.7839 17.7581 44.6699 18.5557C44.5723 19.3369 44.4746 20.0612 44.377 20.7285C44.2793 21.3796 44.1898 21.9248 44.1084 22.3643C44.0433 22.8037 43.9945 23.0397 43.9619 23.0723C43.8968 23.1211 43.791 23.2432 43.6445 23.4385C43.498 23.6175 43.3353 23.8047 43.1562 24C42.9935 24.179 42.8389 24.3255 42.6924 24.4395C42.5459 24.5534 42.4482 24.5697 42.3994 24.4883C42.3669 24.3255 42.3506 23.821 42.3506 22.9746C42.3506 22.6165 42.3506 22.1689 42.3506 21.6318C42.3669 21.0785 42.3831 20.4111 42.3994 19.6299C42.432 18.8486 42.4727 17.9372 42.5215 16.8955C42.5703 15.8538 42.6273 14.6494 42.6924 13.2822C42.3669 14.389 42.0739 15.3656 41.8135 16.2119C41.5693 17.0583 41.3496 17.7988 41.1543 18.4336C40.9753 19.0521 40.8206 19.5811 40.6904 20.0205C40.5602 20.4437 40.4463 20.7936 40.3486 21.0703C40.137 21.7214 39.9987 22.1038 39.9336 22.2178C39.8685 22.234 39.7627 22.1852 39.6162 22.0713C39.486 21.9574 39.3314 21.7946 39.1523 21.583C38.9896 21.3551 38.8187 21.0866 38.6396 20.7773C38.4769 20.4681 38.3385 20.1263 38.2246 19.752C38.1107 19.4102 37.9642 18.9544 37.7852 18.3848C37.6224 17.8965 37.4108 17.2617 37.1504 16.4805C36.89 15.6829 36.5726 14.6901 36.1982 13.502C36.2959 14.8366 36.3773 16.0085 36.4424 17.0176C36.5075 18.0267 36.5563 18.9056 36.5889 19.6543C36.6377 20.403 36.6702 21.0378 36.6865 21.5586C36.7191 22.0632 36.7354 22.4863 36.7354 22.8281C36.7516 23.6094 36.7272 24.057 36.6621 24.1709C36.4993 24.1709 36.3203 24.0977 36.125 23.9512C35.946 23.7884 35.7669 23.6012 35.5879 23.3896C35.4251 23.1618 35.2786 22.9421 35.1484 22.7305C35.0345 22.5189 34.9694 22.3643 34.9531 22.2666C34.9368 22.2015 34.888 21.9004 34.8066 21.3633C34.7253 20.8262 34.6276 20.1426 34.5137 19.3125C34.416 18.4661 34.3021 17.5221 34.1719 16.4805C34.0579 15.4225 33.944 14.3483 33.8301 13.2578C33.7324 12.1673 33.651 11.1094 33.5859 10.084C33.5208 9.04232 33.4883 8.11458 33.4883 7.30078C33.4883 7.17057 33.651 6.99967 33.9766 6.78809C34.3021 6.56022 34.6683 6.34863 35.0752 6.15332C35.4984 5.94173 35.889 5.7627 36.2471 5.61621C36.6051 5.45345 36.8249 5.37207 36.9062 5.37207C36.9714 5.37207 37.0365 5.55924 37.1016 5.93359C37.1829 6.30794 37.2725 6.77995 37.3701 7.34961C37.4678 7.91927 37.5736 8.55404 37.6875 9.25391C37.8014 9.95378 37.9316 10.6211 38.0781 11.2559C38.1921 11.9069 38.3304 12.5824 38.4932 13.2822C38.6234 13.8844 38.7699 14.5518 38.9326 15.2842C39.1117 16.0003 39.307 16.7002 39.5186 17.3838C39.7464 16.391 39.9499 15.4958 40.1289 14.6982C40.3242 13.8844 40.4951 13.1927 40.6416 12.623C40.8206 11.9557 40.9753 11.3617 41.1055 10.8408C41.3984 9.57129 41.6833 8.57031 41.96 7.83789C42.2529 7.10547 42.4401 6.67415 42.5215 6.54395C42.5703 6.47884 42.7412 6.46257 43.0342 6.49512C43.3434 6.52767 43.6771 6.58464 44.0352 6.66602C44.3932 6.73112 44.7188 6.8125 45.0117 6.91016C45.321 7.00781 45.4919 7.08919 45.5244 7.1543ZM48.625 16.9443C48.8854 16.8467 49.1784 16.7409 49.5039 16.627C49.8457 16.4967 50.1712 16.3828 50.4805 16.2852C50.7897 16.1712 51.0664 16.0736 51.3105 15.9922C51.5547 15.9108 51.7337 15.8457 51.8477 15.7969C51.8314 15.6178 51.807 15.4144 51.7744 15.1865C51.7581 14.9424 51.7337 14.7145 51.7012 14.5029C51.6686 14.2751 51.6279 14.0798 51.5791 13.917C51.5303 13.7542 51.4814 13.6566 51.4326 13.624C51.3024 13.5752 51.0827 13.5345 50.7734 13.502C50.4805 13.4531 50.1712 13.4613 49.8457 13.5264C49.5365 13.5915 49.2516 13.7135 48.9912 13.8926C48.7308 14.0716 48.5843 14.3564 48.5518 14.7471C48.5192 15.0075 48.5111 15.333 48.5273 15.7236C48.5436 16.1143 48.5762 16.5212 48.625 16.9443ZM53.9229 17.335C53.9066 17.3675 53.7113 17.4326 53.3369 17.5303C52.9626 17.6279 52.515 17.7337 51.9941 17.8477C51.4733 17.9453 50.9199 18.0511 50.334 18.165C49.748 18.2627 49.2435 18.3441 48.8203 18.4092C48.9017 19.0602 48.9993 19.6462 49.1133 20.167C49.2272 20.6715 49.3249 20.9889 49.4062 21.1191C49.4876 21.2331 49.5934 21.3389 49.7236 21.4365C49.8376 21.5179 49.9759 21.5993 50.1387 21.6807C50.3177 21.7458 50.5293 21.7946 50.7734 21.8271C50.9525 21.876 51.1234 21.8109 51.2861 21.6318C51.4163 21.4691 51.5303 21.1842 51.6279 20.7773C51.7419 20.3704 51.7988 19.7275 51.7988 18.8486C52.3034 18.7673 52.694 18.7184 52.9707 18.7021C53.2637 18.6859 53.4753 18.6859 53.6055 18.7021C53.7682 18.7184 53.8659 18.7428 53.8984 18.7754C53.9147 18.8242 53.9147 18.9463 53.8984 19.1416C53.8822 19.3369 53.8415 19.5811 53.7764 19.874C53.7275 20.1507 53.6624 20.46 53.5811 20.8018C53.516 21.1273 53.4346 21.4447 53.3369 21.7539C53.2393 22.0469 53.1335 22.3154 53.0195 22.5596C52.9056 22.7874 52.7835 22.9502 52.6533 23.0479C52.2627 23.3408 51.7744 23.4873 51.1885 23.4873C50.6025 23.471 50.0247 23.3896 49.4551 23.2432C48.8854 23.0804 48.3727 22.8932 47.917 22.6816C47.4613 22.4538 47.1764 22.2666 47.0625 22.1201C46.9811 22.0225 46.9079 21.7783 46.8428 21.3877C46.7777 20.9808 46.7207 20.4925 46.6719 19.9229C46.6393 19.3532 46.6149 18.7266 46.5986 18.043C46.5824 17.3594 46.5905 16.6921 46.623 16.041C46.6719 15.39 46.737 14.7878 46.8184 14.2344C46.916 13.681 47.0462 13.2334 47.209 12.8916C47.4531 12.4033 47.8519 12.0046 48.4053 11.6953C48.9587 11.3861 49.5446 11.1745 50.1631 11.0605C50.7816 10.9466 51.3675 10.9303 51.9209 11.0117C52.4906 11.0931 52.9137 11.2721 53.1904 11.5488C53.3532 11.7116 53.4997 12.0371 53.6299 12.5254C53.7601 12.9974 53.8415 13.5752 53.874 14.2588C53.874 14.3239 53.8822 14.5111 53.8984 14.8203C53.9147 15.1296 53.9229 15.4632 53.9229 15.8213C53.9391 16.1631 53.9473 16.4886 53.9473 16.7979C53.9473 17.1071 53.9391 17.2861 53.9229 17.335ZM65.373 9.54688C65.6823 9.80729 65.9102 10.3281 66.0566 11.1094C66.2031 11.8743 66.2601 12.7288 66.2275 13.6729C66.2113 13.9658 66.1706 14.3727 66.1055 14.8936C66.0404 15.3981 65.959 15.9596 65.8613 16.5781C65.7799 17.1803 65.6823 17.7988 65.5684 18.4336C65.4707 19.0684 65.373 19.6543 65.2754 20.1914C65.1777 20.7285 65.0882 21.1842 65.0068 21.5586C64.9417 21.9167 64.901 22.1283 64.8848 22.1934C64.8522 22.3073 64.7627 22.4212 64.6162 22.5352C64.4697 22.6491 64.3151 22.7467 64.1523 22.8281C64.0059 22.8932 63.8594 22.9421 63.7129 22.9746C63.5664 22.9909 63.4769 22.9583 63.4443 22.877C63.4281 22.8281 63.4281 22.5758 63.4443 22.1201C63.4606 21.6644 63.485 21.1029 63.5176 20.4355C63.5501 19.752 63.5827 19.0277 63.6152 18.2627C63.6641 17.4814 63.7048 16.749 63.7373 16.0654C63.7699 15.3818 63.8024 14.804 63.835 14.332C63.8675 13.8438 63.8838 13.5508 63.8838 13.4531C63.9001 12.9486 63.8594 12.5091 63.7617 12.1348C63.6641 11.7441 63.5013 11.5488 63.2734 11.5488C63.1921 11.5488 63.0944 11.5895 62.9805 11.6709C62.8665 11.736 62.7526 11.8174 62.6387 11.915C62.541 12.0127 62.4434 12.1185 62.3457 12.2324C62.2643 12.3464 62.2236 12.4521 62.2236 12.5498C62.2074 12.8428 62.1829 13.2741 62.1504 13.8438C62.1341 14.4134 62.1097 15.04 62.0771 15.7236C62.0609 16.4072 62.0365 17.1071 62.0039 17.8232C61.9876 18.5394 61.9632 19.1986 61.9307 19.8008C61.9144 20.403 61.8981 20.9076 61.8818 21.3145C61.8656 21.7051 61.8493 21.9248 61.833 21.9736C61.8005 22.0387 61.6947 22.0876 61.5156 22.1201C61.3529 22.1364 61.1657 22.1364 60.9541 22.1201C60.7425 22.1038 60.5472 22.0632 60.3682 21.998C60.2054 21.9329 60.1077 21.8434 60.0752 21.7295C60.0426 21.6481 60.0182 21.404 60.002 20.9971C59.9857 20.5739 59.9613 20.0693 59.9287 19.4834C59.9124 18.8975 59.8962 18.2708 59.8799 17.6035C59.8636 16.9199 59.8473 16.2852 59.8311 15.6992C59.8148 15.1133 59.7985 14.6087 59.7822 14.1855C59.7822 13.7624 59.7822 13.502 59.7822 13.4043C59.7822 13.0137 59.7497 12.7044 59.6846 12.4766C59.6195 12.2324 59.5381 12.0452 59.4404 11.915C59.359 11.7686 59.2614 11.679 59.1475 11.6465C59.0335 11.5977 58.9196 11.5732 58.8057 11.5732C58.7568 11.5732 58.6836 11.6139 58.5859 11.6953C58.4883 11.7604 58.3906 11.8662 58.293 12.0127C58.1953 12.1429 58.1139 12.2975 58.0488 12.4766C57.9837 12.6393 57.9593 12.8184 57.9756 13.0137C57.9756 13.0951 57.9837 13.3962 58 13.917C58.0163 14.4378 58.0244 15.0645 58.0244 15.7969C58.0407 16.5293 58.057 17.3187 58.0732 18.165C58.0895 19.0114 58.0977 19.8008 58.0977 20.5332C58.1139 21.2493 58.1221 21.8597 58.1221 22.3643C58.1221 22.8525 58.1221 23.113 58.1221 23.1455C58.0895 23.2269 58 23.2757 57.8535 23.292C57.707 23.292 57.5443 23.2594 57.3652 23.1943C57.1862 23.1292 57.0153 23.0397 56.8525 22.9258C56.6898 22.7956 56.5758 22.641 56.5107 22.4619C56.4782 22.3317 56.4294 22.0469 56.3643 21.6074C56.2992 21.168 56.2259 20.6471 56.1445 20.0449C56.0632 19.4264 55.9818 18.7673 55.9004 18.0674C55.819 17.3512 55.7376 16.6676 55.6562 16.0166C55.5749 15.3493 55.5016 14.7471 55.4365 14.21C55.3877 13.6729 55.347 13.266 55.3145 12.9893C55.2656 12.5986 55.2087 12.1755 55.1436 11.7197C55.0947 11.2477 55.0459 10.8001 54.9971 10.377C54.9645 9.9375 54.9401 9.56315 54.9238 9.25391C54.9076 8.92839 54.9238 8.72493 54.9727 8.64355C55.0052 8.57845 55.1191 8.55404 55.3145 8.57031C55.526 8.58659 55.7458 8.63542 55.9736 8.7168C56.2178 8.7819 56.4456 8.87956 56.6572 9.00977C56.8851 9.1237 57.0316 9.24577 57.0967 9.37598C57.1455 9.47363 57.1943 9.5957 57.2432 9.74219C57.3083 9.8724 57.3734 10.084 57.4385 10.377C57.7152 10.1654 58 9.97005 58.293 9.79102C58.5859 9.5957 58.8789 9.44922 59.1719 9.35156C59.4648 9.23763 59.7415 9.18066 60.002 9.18066C60.2786 9.16439 60.5391 9.23763 60.7832 9.40039C60.9948 9.56315 61.1982 9.84798 61.3936 10.2549C62.1748 9.81543 62.9235 9.51432 63.6396 9.35156C64.3721 9.17253 64.9499 9.23763 65.373 9.54688ZM69.4014 16.9443C69.6618 16.8467 69.9548 16.7409 70.2803 16.627C70.6221 16.4967 70.9476 16.3828 71.2568 16.2852C71.5661 16.1712 71.8428 16.0736 72.0869 15.9922C72.3311 15.9108 72.5101 15.8457 72.624 15.7969C72.6077 15.6178 72.5833 15.4144 72.5508 15.1865C72.5345 14.9424 72.5101 14.7145 72.4775 14.5029C72.445 14.2751 72.4043 14.0798 72.3555 13.917C72.3066 13.7542 72.2578 13.6566 72.209 13.624C72.0788 13.5752 71.859 13.5345 71.5498 13.502C71.2568 13.4531 70.9476 13.4613 70.6221 13.5264C70.3128 13.5915 70.028 13.7135 69.7676 13.8926C69.5072 14.0716 69.3607 14.3564 69.3281 14.7471C69.2956 15.0075 69.2874 15.333 69.3037 15.7236C69.32 16.1143 69.3525 16.5212 69.4014 16.9443ZM74.6992 17.335C74.6829 17.3675 74.4876 17.4326 74.1133 17.5303C73.7389 17.6279 73.2913 17.7337 72.7705 17.8477C72.2497 17.9453 71.6963 18.0511 71.1104 18.165C70.5244 18.2627 70.0199 18.3441 69.5967 18.4092C69.6781 19.0602 69.7757 19.6462 69.8896 20.167C70.0036 20.6715 70.1012 20.9889 70.1826 21.1191C70.264 21.2331 70.3698 21.3389 70.5 21.4365C70.6139 21.5179 70.7523 21.5993 70.915 21.6807C71.0941 21.7458 71.3057 21.7946 71.5498 21.8271C71.7288 21.876 71.8997 21.8109 72.0625 21.6318C72.1927 21.4691 72.3066 21.1842 72.4043 20.7773C72.5182 20.3704 72.5752 19.7275 72.5752 18.8486C73.0798 18.7673 73.4704 18.7184 73.7471 18.7021C74.04 18.6859 74.2516 18.6859 74.3818 18.7021C74.5446 18.7184 74.6423 18.7428 74.6748 18.7754C74.6911 18.8242 74.6911 18.9463 74.6748 19.1416C74.6585 19.3369 74.6178 19.5811 74.5527 19.874C74.5039 20.1507 74.4388 20.46 74.3574 20.8018C74.2923 21.1273 74.2109 21.4447 74.1133 21.7539C74.0156 22.0469 73.9098 22.3154 73.7959 22.5596C73.682 22.7874 73.5599 22.9502 73.4297 23.0479C73.0391 23.3408 72.5508 23.4873 71.9648 23.4873C71.3789 23.471 70.8011 23.3896 70.2314 23.2432C69.6618 23.0804 69.1491 22.8932 68.6934 22.6816C68.2376 22.4538 67.9528 22.2666 67.8389 22.1201C67.7575 22.0225 67.6842 21.7783 67.6191 21.3877C67.554 20.9808 67.4971 20.4925 67.4482 19.9229C67.4157 19.3532 67.3913 18.7266 67.375 18.043C67.3587 17.3594 67.3669 16.6921 67.3994 16.041C67.4482 15.39 67.5133 14.7878 67.5947 14.2344C67.6924 13.681 67.8226 13.2334 67.9854 12.8916C68.2295 12.4033 68.6283 12.0046 69.1816 11.6953C69.735 11.3861 70.321 11.1745 70.9395 11.0605C71.5579 10.9466 72.1439 10.9303 72.6973 11.0117C73.2669 11.0931 73.6901 11.2721 73.9668 11.5488C74.1296 11.7116 74.276 12.0371 74.4062 12.5254C74.5365 12.9974 74.6178 13.5752 74.6504 14.2588C74.6504 14.3239 74.6585 14.5111 74.6748 14.8203C74.6911 15.1296 74.6992 15.4632 74.6992 15.8213C74.7155 16.1631 74.7236 16.4886 74.7236 16.7979C74.7236 17.1071 74.7155 17.2861 74.6992 17.335ZM80.1924 10.6455C80.1273 10.5804 79.9889 10.5153 79.7773 10.4502C79.5658 10.3851 79.4193 10.4095 79.3379 10.5234C79.2891 10.5885 79.2077 10.8001 79.0938 11.1582C78.9798 11.5163 78.8577 11.972 78.7275 12.5254C78.6136 13.0788 78.5078 13.7135 78.4102 14.4297C78.3288 15.1458 78.2881 15.8864 78.2881 16.6514C78.2881 17.2048 78.3125 17.7337 78.3613 18.2383C78.4102 18.7266 78.4671 19.1579 78.5322 19.5322C78.6136 19.9066 78.7031 20.2077 78.8008 20.4355C78.9147 20.6634 79.0286 20.7855 79.1426 20.8018C79.2402 20.8018 79.3542 20.6878 79.4844 20.46C79.6309 20.2321 79.7692 19.9717 79.8994 19.6787C80.0459 19.3695 80.168 19.0846 80.2656 18.8242C80.3796 18.5475 80.4609 18.3685 80.5098 18.2871C80.64 18.0755 80.8109 17.8965 81.0225 17.75C81.234 17.5872 81.4131 17.5059 81.5596 17.5059C81.641 17.5059 81.6979 17.5628 81.7305 17.6768C81.7793 17.7907 81.8118 17.929 81.8281 18.0918C81.8607 18.2383 81.877 18.3929 81.877 18.5557C81.877 18.7184 81.877 18.8486 81.877 18.9463C81.877 19.1253 81.8444 19.459 81.7793 19.9473C81.7142 20.4355 81.6165 20.932 81.4863 21.4365C81.3724 21.9411 81.234 22.3887 81.0713 22.7793C80.9248 23.1699 80.762 23.3571 80.583 23.3408C80.404 23.3245 80.1354 23.2432 79.7773 23.0967C79.4193 22.9502 79.0531 22.7793 78.6787 22.584C78.3206 22.3887 77.987 22.1934 77.6777 21.998C77.3848 21.7865 77.2057 21.6237 77.1406 21.5098C77.0755 21.3958 76.9779 21.1191 76.8477 20.6797C76.7174 20.224 76.5791 19.6706 76.4326 19.0195C76.3024 18.3685 76.1885 17.6523 76.0908 16.8711C75.9932 16.0898 75.9443 15.3086 75.9443 14.5273C75.9443 13.7461 75.9606 12.973 75.9932 12.208C76.042 11.443 76.1152 10.7594 76.2129 10.1572C76.3105 9.55501 76.4326 9.06673 76.5791 8.69238C76.7419 8.31803 76.9372 8.12272 77.165 8.10645C77.7998 8.04134 78.4346 8.09831 79.0693 8.27734C79.7204 8.4401 80.2982 8.66797 80.8027 8.96094C81.3236 9.23763 81.7467 9.53874 82.0723 9.86426C82.3978 10.1735 82.5687 10.4339 82.585 10.6455C82.6012 10.8734 82.585 11.1908 82.5361 11.5977C82.5036 12.0046 82.4466 12.4196 82.3652 12.8428C82.3001 13.2497 82.2188 13.624 82.1211 13.9658C82.0397 14.2913 81.9665 14.4785 81.9014 14.5273C81.7549 14.6738 81.584 14.8285 81.3887 14.9912C81.1934 15.154 81.0062 15.1865 80.8271 15.0889C80.762 15.0563 80.7051 14.9342 80.6562 14.7227C80.6074 14.4948 80.5586 14.2181 80.5098 13.8926C80.4772 13.5671 80.4447 13.2171 80.4121 12.8428C80.3796 12.4684 80.347 12.1266 80.3145 11.8174C80.2982 11.4919 80.2738 11.2233 80.2412 11.0117C80.2249 10.7839 80.2087 10.6618 80.1924 10.6455ZM90.0557 11.1582C90.1533 11.2721 90.2428 11.3942 90.3242 11.5244C90.4056 11.6383 90.4788 11.8011 90.5439 12.0127C90.609 12.208 90.6579 12.4684 90.6904 12.7939C90.7393 13.1195 90.7637 13.5426 90.7637 14.0635C90.7637 14.8936 90.7393 15.7318 90.6904 16.5781C90.6579 17.4082 90.6253 18.1406 90.5928 18.7754C90.5765 19.3451 90.5602 19.874 90.5439 20.3623C90.5277 20.8506 90.5114 21.2819 90.4951 21.6562C90.4788 22.0143 90.4544 22.2992 90.4219 22.5107C90.4056 22.7223 90.3893 22.8363 90.373 22.8525C90.3079 22.9014 90.2021 22.8851 90.0557 22.8037C89.9255 22.7061 89.779 22.584 89.6162 22.4375C89.4697 22.291 89.3314 22.1364 89.2012 21.9736C89.071 21.8109 88.9896 21.6807 88.957 21.583C88.957 21.5016 88.9326 21.2656 88.8838 20.875C88.4932 21.1029 88.0618 21.2656 87.5898 21.3633C87.1178 21.4447 86.6458 21.4772 86.1738 21.4609C85.7181 21.4284 85.2949 21.3389 84.9043 21.1924C84.5137 21.0459 84.2207 20.8506 84.0254 20.6064C83.944 20.5088 83.8708 20.3623 83.8057 20.167C83.7568 19.9717 83.708 19.752 83.6592 19.5078C83.6266 19.2474 83.5941 18.9788 83.5615 18.7021C83.529 18.4092 83.5046 18.1406 83.4883 17.8965C83.4557 17.2617 83.5371 16.7165 83.7324 16.2607C83.9277 15.7887 84.2858 15.4388 84.8066 15.2109C85.0345 15.1133 85.3356 15.0645 85.71 15.0645C86.1006 15.0482 86.4831 15.0645 86.8574 15.1133C87.248 15.1458 87.598 15.1947 87.9072 15.2598C88.2165 15.3086 88.4118 15.3493 88.4932 15.3818C88.4281 14.5518 88.3792 13.8356 88.3467 13.2334C88.3141 12.6149 88.249 12.2161 88.1514 12.0371C88.07 11.9232 87.9723 11.8092 87.8584 11.6953C87.7607 11.6139 87.6305 11.5244 87.4678 11.4268C87.305 11.3291 87.1097 11.2559 86.8818 11.207C86.7028 11.1745 86.54 11.2477 86.3936 11.4268C86.2633 11.5895 86.1413 11.8825 86.0273 12.3057C85.9297 12.7126 85.8727 13.3392 85.8564 14.1855C85.2868 14.2018 84.8473 14.2018 84.5381 14.1855C84.2451 14.153 84.0254 14.1204 83.8789 14.0879C83.6999 14.0553 83.5941 14.0146 83.5615 13.9658C83.529 13.9007 83.5452 13.6647 83.6104 13.2578C83.6755 12.8346 83.765 12.3789 83.8789 11.8906C84.0091 11.4023 84.1556 10.9385 84.3184 10.499C84.4974 10.0596 84.6846 9.78288 84.8799 9.66895C85.2705 9.44108 85.7344 9.3597 86.2715 9.4248C86.8249 9.48991 87.362 9.62826 87.8828 9.83984C88.4036 10.0514 88.8675 10.2874 89.2744 10.5479C89.6813 10.8083 89.9417 11.0117 90.0557 11.1582ZM88.542 18.2871C88.542 18.2057 88.5501 18.0999 88.5664 17.9697C88.5827 17.8232 88.5908 17.6768 88.5908 17.5303C88.5908 17.3838 88.5827 17.2454 88.5664 17.1152C88.5664 16.985 88.5501 16.8874 88.5176 16.8223C88.4688 16.7246 88.3223 16.6432 88.0781 16.5781C87.8503 16.513 87.5898 16.4723 87.2969 16.4561C87.0039 16.4235 86.7272 16.4154 86.4668 16.4316C86.2064 16.4316 86.0273 16.4642 85.9297 16.5293C85.7995 16.6107 85.7018 16.7246 85.6367 16.8711C85.5879 17.0176 85.5553 17.2454 85.5391 17.5547C85.5391 17.7012 85.5472 17.8558 85.5635 18.0186C85.5798 18.1813 85.596 18.3441 85.6123 18.5068C85.6449 18.6533 85.6774 18.7835 85.71 18.8975C85.7588 19.0114 85.8076 19.0846 85.8564 19.1172C85.9704 19.1986 86.1657 19.2718 86.4424 19.3369C86.7354 19.3857 87.0283 19.402 87.3213 19.3857C87.6143 19.3532 87.8828 19.2555 88.127 19.0928C88.3711 18.93 88.5094 18.6615 88.542 18.2871ZM97.624 10.6943C97.7542 10.7757 97.8763 10.9385 97.9902 11.1826C98.1204 11.4105 98.2344 11.679 98.332 11.9883C98.446 12.2812 98.5355 12.5986 98.6006 12.9404C98.682 13.2822 98.7471 13.5996 98.7959 13.8926C98.861 14.1855 98.9017 14.4378 98.918 14.6494C98.9342 14.8447 98.9342 14.9668 98.918 15.0156C98.8854 15.0807 98.7878 15.1458 98.625 15.2109C98.4785 15.276 98.2588 15.3493 97.9658 15.4307C97.6729 15.512 97.266 15.6016 96.7451 15.6992C96.7126 14.804 96.6475 14.1286 96.5498 13.6729C96.4521 13.2008 96.3464 12.8672 96.2324 12.6719C96.1022 12.444 95.9639 12.3301 95.8174 12.3301C95.6709 12.3952 95.5407 12.4766 95.4268 12.5742C95.3128 12.6556 95.2152 12.7451 95.1338 12.8428C95.0361 12.9567 94.9466 13.0788 94.8652 13.209C94.8327 13.2578 94.8001 13.3717 94.7676 13.5508C94.735 13.7298 94.7025 13.9984 94.6699 14.3564C94.6699 14.4704 94.6618 14.7064 94.6455 15.0645C94.6455 15.4225 94.6374 15.8376 94.6211 16.3096C94.6211 16.7816 94.613 17.278 94.5967 17.7988C94.5967 18.3197 94.5885 18.8079 94.5723 19.2637C94.5723 19.7031 94.5641 20.0775 94.5479 20.3867C94.5479 20.696 94.5397 20.875 94.5234 20.9238C94.4909 21.0052 94.4095 21.1191 94.2793 21.2656C94.1491 21.4121 94.0026 21.5505 93.8398 21.6807C93.6771 21.7946 93.5225 21.8923 93.376 21.9736C93.2295 22.0387 93.1318 22.0306 93.083 21.9492C93.0342 21.9004 92.9854 21.6888 92.9365 21.3145C92.8877 20.9401 92.8307 20.4844 92.7656 19.9473C92.7168 19.3939 92.6598 18.7917 92.5947 18.1406C92.5296 17.4896 92.4727 16.863 92.4238 16.2607C92.375 15.6585 92.3343 15.1214 92.3018 14.6494C92.2692 14.1611 92.2448 13.8112 92.2285 13.5996C92.2122 13.2904 92.196 12.9486 92.1797 12.5742C92.1634 12.1999 92.1471 11.8499 92.1309 11.5244C92.1309 11.1826 92.1309 10.8896 92.1309 10.6455C92.1471 10.3851 92.1797 10.2305 92.2285 10.1816C92.2611 10.1328 92.3669 10.1247 92.5459 10.1572C92.7412 10.1735 92.9447 10.2223 93.1562 10.3037C93.3841 10.3688 93.5957 10.4583 93.791 10.5723C93.9863 10.6862 94.1165 10.792 94.1816 10.8896C94.2305 10.971 94.2793 11.0931 94.3281 11.2559C94.6374 11.0931 94.9303 10.9466 95.207 10.8164C95.5 10.6699 95.7767 10.5641 96.0371 10.499C96.3138 10.4339 96.5824 10.4176 96.8428 10.4502C97.1032 10.4665 97.3636 10.5479 97.624 10.6943ZM106.584 7.83789C106.633 8.22852 106.649 9.00977 106.633 10.1816C106.633 10.6862 106.617 11.2965 106.584 12.0127C106.568 12.7288 106.535 13.5915 106.486 14.6006C106.438 15.5934 106.372 16.749 106.291 18.0674C106.226 19.3695 106.136 20.8506 106.022 22.5107C105.99 22.6735 105.917 22.8525 105.803 23.0479C105.705 23.2432 105.591 23.4222 105.461 23.585C105.331 23.7477 105.192 23.8861 105.046 24C104.899 24.0977 104.769 24.1302 104.655 24.0977C104.623 24.0814 104.582 23.9512 104.533 23.707C104.501 23.4629 104.468 23.1211 104.436 22.6816C103.703 23.0072 103.011 23.2269 102.36 23.3408C101.709 23.4548 101.18 23.3815 100.773 23.1211C100.611 23.0234 100.448 22.8525 100.285 22.6084C100.139 22.348 100 22.0469 99.8701 21.7051C99.7399 21.3633 99.6341 21.0052 99.5527 20.6309C99.4714 20.2402 99.4307 19.874 99.4307 19.5322C99.4307 19.2881 99.4469 18.9626 99.4795 18.5557C99.512 18.1488 99.5527 17.7093 99.6016 17.2373C99.6504 16.749 99.7074 16.2607 99.7725 15.7725C99.8376 15.2679 99.9027 14.804 99.9678 14.3809C100.033 13.9577 100.09 13.5996 100.139 13.3066C100.188 13.0137 100.228 12.8346 100.261 12.7695C100.293 12.5742 100.35 12.4115 100.432 12.2812C100.529 12.151 100.611 12.0534 100.676 11.9883C100.839 11.8581 101.075 11.7604 101.384 11.6953C101.709 11.6302 102.043 11.5895 102.385 11.5732C102.743 11.557 103.076 11.5651 103.386 11.5977C103.695 11.6139 103.923 11.6465 104.069 11.6953H104.118C104.086 9.67708 104.086 8.12272 104.118 7.03223C104.151 5.94173 104.216 5.35579 104.313 5.27441C104.379 5.22559 104.525 5.26628 104.753 5.39648C104.981 5.52669 105.217 5.71387 105.461 5.95801C105.721 6.20215 105.957 6.49512 106.169 6.83691C106.397 7.16243 106.535 7.49609 106.584 7.83789ZM102.873 21.5098C103.101 21.4609 103.304 21.404 103.483 21.3389C103.679 21.2575 103.841 21.1842 103.972 21.1191C104.118 21.054 104.24 20.9727 104.338 20.875C104.322 20.4518 104.305 19.9798 104.289 19.459C104.273 18.9219 104.257 18.3685 104.24 17.7988C104.224 17.2292 104.208 16.6514 104.191 16.0654C104.175 15.4632 104.159 14.8854 104.143 14.332C104.143 14.153 104.11 13.9984 104.045 13.8682C103.996 13.738 103.931 13.6322 103.85 13.5508C103.801 13.5182 103.703 13.4775 103.557 13.4287C103.41 13.3636 103.239 13.3148 103.044 13.2822C102.865 13.2334 102.686 13.209 102.507 13.209C102.344 13.209 102.23 13.2415 102.165 13.3066C102.132 13.3229 102.1 13.4857 102.067 13.7949C102.051 14.0879 102.027 14.4622 101.994 14.918C101.978 15.3574 101.953 15.8376 101.921 16.3584C101.905 16.8792 101.888 17.3675 101.872 17.8232C101.856 18.279 101.84 18.6696 101.823 18.9951C101.807 19.3206 101.799 19.4997 101.799 19.5322C101.799 19.8089 101.831 20.0693 101.896 20.3135C101.978 20.5576 102.076 20.7773 102.189 20.9727C102.303 21.1517 102.425 21.2982 102.556 21.4121C102.686 21.5098 102.792 21.5423 102.873 21.5098Z" fill="white"/>
<path d="M18.5244 7.1543C18.557 7.2194 18.5732 7.44727 18.5732 7.83789C18.5895 8.22852 18.5895 8.70052 18.5732 9.25391C18.5732 9.80729 18.557 10.4014 18.5244 11.0361C18.4919 11.6546 18.4512 12.2406 18.4023 12.7939C18.3698 13.1032 18.3128 13.5671 18.2314 14.1855C18.1663 14.804 18.085 15.4876 17.9873 16.2363C17.8896 16.985 17.7839 17.7581 17.6699 18.5557C17.5723 19.3369 17.4746 20.0612 17.377 20.7285C17.2793 21.3796 17.1898 21.9248 17.1084 22.3643C17.0433 22.8037 16.9945 23.0397 16.9619 23.0723C16.8968 23.1211 16.791 23.2432 16.6445 23.4385C16.498 23.6175 16.3353 23.8047 16.1562 24C15.9935 24.179 15.8389 24.3255 15.6924 24.4395C15.5459 24.5534 15.4482 24.5697 15.3994 24.4883C15.3669 24.3255 15.3506 23.821 15.3506 22.9746C15.3506 22.6165 15.3506 22.1689 15.3506 21.6318C15.3669 21.0785 15.3831 20.4111 15.3994 19.6299C15.432 18.8486 15.4727 17.9372 15.5215 16.8955C15.5703 15.8538 15.6273 14.6494 15.6924 13.2822C15.3669 14.389 15.0739 15.3656 14.8135 16.2119C14.5693 17.0583 14.3496 17.7988 14.1543 18.4336C13.9753 19.0521 13.8206 19.5811 13.6904 20.0205C13.5602 20.4437 13.4463 20.7936 13.3486 21.0703C13.137 21.7214 12.9987 22.1038 12.9336 22.2178C12.8685 22.234 12.7627 22.1852 12.6162 22.0713C12.486 21.9574 12.3314 21.7946 12.1523 21.583C11.9896 21.3551 11.8187 21.0866 11.6396 20.7773C11.4769 20.4681 11.3385 20.1263 11.2246 19.752C11.1107 19.4102 10.9642 18.9544 10.7852 18.3848C10.6224 17.8965 10.4108 17.2617 10.1504 16.4805C9.88997 15.6829 9.57259 14.6901 9.19824 13.502C9.2959 14.8366 9.37728 16.0085 9.44238 17.0176C9.50749 18.0267 9.55632 18.9056 9.58887 19.6543C9.6377 20.403 9.67025 21.0378 9.68652 21.5586C9.71908 22.0632 9.73535 22.4863 9.73535 22.8281C9.75163 23.6094 9.72721 24.057 9.66211 24.1709C9.49935 24.1709 9.32031 24.0977 9.125 23.9512C8.94596 23.7884 8.76693 23.6012 8.58789 23.3896C8.42513 23.1618 8.27865 22.9421 8.14844 22.7305C8.03451 22.5189 7.9694 22.3643 7.95312 22.2666C7.93685 22.2015 7.88802 21.9004 7.80664 21.3633C7.72526 20.8262 7.6276 20.1426 7.51367 19.3125C7.41602 18.4661 7.30208 17.5221 7.17188 16.4805C7.05794 15.4225 6.94401 14.3483 6.83008 13.2578C6.73242 12.1673 6.65104 11.1094 6.58594 10.084C6.52083 9.04232 6.48828 8.11458 6.48828 7.30078C6.48828 7.17057 6.65104 6.99967 6.97656 6.78809C7.30208 6.56022 7.66829 6.34863 8.0752 6.15332C8.49837 5.94173 8.889 5.7627 9.24707 5.61621C9.60514 5.45345 9.82487 5.37207 9.90625 5.37207C9.97135 5.37207 10.0365 5.55924 10.1016 5.93359C10.1829 6.30794 10.2725 6.77995 10.3701 7.34961C10.4678 7.91927 10.5736 8.55404 10.6875 9.25391C10.8014 9.95378 10.9316 10.6211 11.0781 11.2559C11.1921 11.9069 11.3304 12.5824 11.4932 13.2822C11.6234 13.8844 11.7699 14.5518 11.9326 15.2842C12.1117 16.0003 12.307 16.7002 12.5186 17.3838C12.7464 16.391 12.9499 15.4958 13.1289 14.6982C13.3242 13.8844 13.4951 13.1927 13.6416 12.623C13.8206 11.9557 13.9753 11.3617 14.1055 10.8408C14.3984 9.57129 14.6833 8.57031 14.96 7.83789C15.2529 7.10547 15.4401 6.67415 15.5215 6.54395C15.5703 6.47884 15.7412 6.46257 16.0342 6.49512C16.3434 6.52767 16.6771 6.58464 17.0352 6.66602C17.3932 6.73112 17.7188 6.8125 18.0117 6.91016C18.321 7.00781 18.4919 7.08919 18.5244 7.1543Z" fill="white"/>
</svg>
